<svg xmlns="http://www.w3.org/2000/svg" xmlns:xlink="http://www.w3.org/1999/xlink" width="500" zoomAndPan="magnify" viewBox="0 0 375 374.999991" height="500" preserveAspectRatio="xMidYMid meet" version="1.0"><defs><clipPath id="5f7e22bdcb"><path d="M 10.109375 39 L 363 39 L 363 337.5 L 10.109375 337.5 Z M 10.109375 39 " clip-rule="nonzero"/></clipPath></defs><g clip-path="url(#5f7e22bdcb)"><path fill="#5271ff" d="M 362.292969 114.65625 C 361.816406 106.3125 364.875 96.976562 359.332031 89.71875 C 349.617188 87.039062 339.933594 84.332031 330.1875 81.945312 C 329.675781 69.875 330.628906 57.765625 329.742188 45.726562 C 328.339844 37.511719 318.339844 40.375 312.539062 40.3125 C 262.273438 42.824219 215.957031 71.269531 186.394531 111.246094 C 154.601562 67.925781 102.488281 38.078125 47.917969 40.304688 C 46.832031 41.230469 44.636719 43.078125 43.519531 44 C 41.863281 56.519531 43.425781 69.292969 42.753906 81.90625 C 31.703125 86.367188 15.367188 85.667969 10.109375 98.414062 C 12.179688 103.445312 12.660156 108.894531 12.433594 114.308594 C 11.957031 178.203125 12.878906 242.074219 11.988281 305.945312 C 11.15625 310.753906 12.050781 319.261719 18.960938 317.765625 C 41.292969 309.644531 65.339844 306.710938 89.039062 308.085938 C 121.246094 310.597656 154.695312 318.152344 181.164062 337.453125 C 183.746094 337.453125 188.871094 337.453125 191.417969 337.484375 C 206.070312 326.238281 223.84375 320.125 241.398438 315.058594 C 279.019531 304.515625 319.632812 305.503906 356.613281 318.148438 C 364.511719 316.8125 362.378906 308.148438 362.445312 302.410156 C 362.105469 239.847656 362.394531 177.25 362.292969 114.65625 Z M 25.878906 300.464844 C 26.070312 234.488281 25.847656 168.484375 25.972656 102.519531 C 31.609375 100.511719 37.28125 98.507812 42.953125 96.53125 C 42.828125 149.214844 42.859375 201.90625 42.921875 254.59375 C 42.191406 264.183594 54.167969 262.492188 60.410156 263.097656 C 97.683594 264.65625 131.605469 283.613281 158.683594 308.234375 C 116.886719 291.355469 69.296875 287.53125 25.878906 300.464844 Z M 207.828125 311.617188 C 228.503906 291.386719 252.332031 273.234375 280.652344 265.425781 C 295.242188 260.484375 310.6875 260.007812 325.851562 258.574219 C 330.757812 257.96875 329.738281 251.855469 330.089844 248.414062 C 330.058594 198.015625 330.027344 147.625 330.058594 97.230469 C 336.140625 99.074219 342.226562 100.921875 348.339844 102.707031 C 349.203125 168.679688 348.371094 234.683594 348.753906 300.652344 C 302.410156 287.816406 251.792969 292.402344 207.828125 311.617188 Z M 207.828125 311.617188 " fill-opacity="1" fill-rule="nonzero"/></g></svg>