<svg xmlns="http://www.w3.org/2000/svg" xmlns:xlink="http://www.w3.org/1999/xlink" width="500" zoomAndPan="magnify" viewBox="0 0 375 187.499995" height="250" preserveAspectRatio="xMidYMid meet" version="1.0"><defs><g/><clipPath id="571d3d3b04"><path d="M 8.679688 41 L 134 41 L 134 146.667969 L 8.679688 146.667969 Z M 8.679688 41 " clip-rule="nonzero"/></clipPath></defs><g clip-path="url(#571d3d3b04)"><path fill="#5271ff" d="M 133.273438 67.679688 C 133.101562 64.726562 134.1875 61.425781 132.226562 58.855469 C 128.789062 57.910156 125.363281 56.953125 121.914062 56.105469 C 121.734375 51.835938 122.070312 47.550781 121.757812 43.292969 C 121.261719 40.386719 117.722656 41.398438 115.671875 41.378906 C 97.886719 42.265625 81.503906 52.332031 71.042969 66.472656 C 59.796875 51.148438 41.359375 40.585938 22.054688 41.375 C 21.671875 41.703125 20.894531 42.355469 20.5 42.683594 C 19.914062 47.113281 20.464844 51.632812 20.230469 56.09375 C 16.320312 57.671875 10.539062 57.425781 8.679688 61.933594 C 9.414062 63.714844 9.582031 65.640625 9.503906 67.554688 C 9.332031 90.160156 9.660156 112.753906 9.34375 135.351562 C 9.050781 137.054688 9.367188 140.0625 11.8125 139.53125 C 19.710938 136.660156 28.21875 135.621094 36.601562 136.109375 C 47.996094 136.996094 59.828125 139.667969 69.195312 146.496094 C 70.105469 146.496094 71.921875 146.496094 72.820312 146.507812 C 78.003906 142.53125 84.292969 140.367188 90.503906 138.574219 C 103.8125 134.847656 118.179688 135.195312 131.261719 139.667969 C 134.058594 139.195312 133.300781 136.128906 133.328125 134.101562 C 133.207031 111.96875 133.308594 89.824219 133.273438 67.679688 Z M 14.257812 133.410156 C 14.328125 110.074219 14.246094 86.722656 14.292969 63.382812 C 16.285156 62.675781 18.292969 61.964844 20.300781 61.265625 C 20.253906 79.90625 20.265625 98.546875 20.289062 117.183594 C 20.03125 120.578125 24.265625 119.980469 26.476562 120.191406 C 39.660156 120.746094 51.664062 127.449219 61.242188 136.160156 C 46.453125 130.191406 29.617188 128.835938 14.257812 133.410156 Z M 78.628906 137.355469 C 85.941406 130.199219 94.371094 123.777344 104.390625 121.015625 C 109.550781 119.269531 115.015625 119.101562 120.382812 118.59375 C 122.117188 118.378906 121.753906 116.214844 121.878906 114.996094 C 121.867188 97.167969 121.855469 79.34375 121.867188 61.511719 C 124.019531 62.167969 126.171875 62.820312 128.335938 63.449219 C 128.640625 86.789062 128.347656 110.140625 128.484375 133.476562 C 112.085938 128.9375 94.179688 130.5625 78.628906 137.355469 Z M 78.628906 137.355469 " fill-opacity="1" fill-rule="nonzero"/></g><g fill="#5271ff" fill-opacity="1"><g transform="translate(159.731614, 108.02478)"><g><path d="M 2 -40.9375 C 2 -45.289062 3.035156 -48.632812 5.109375 -50.96875 C 7.191406 -53.300781 10.3125 -54.46875 14.46875 -54.46875 C 18.625 -54.46875 21.738281 -53.300781 23.8125 -50.96875 C 25.882812 -48.632812 26.921875 -45.289062 26.921875 -40.9375 L 26.921875 -38.859375 L 18.921875 -38.859375 L 18.921875 -41.46875 C 18.921875 -43.414062 18.550781 -44.785156 17.8125 -45.578125 C 17.070312 -46.378906 16.03125 -46.78125 14.6875 -46.78125 C 13.351562 -46.78125 12.316406 -46.378906 11.578125 -45.578125 C 10.835938 -44.785156 10.46875 -43.414062 10.46875 -41.46875 C 10.46875 -39.625 10.875 -37.992188 11.6875 -36.578125 C 12.507812 -35.171875 13.535156 -33.835938 14.765625 -32.578125 C 16.003906 -31.328125 17.328125 -30.070312 18.734375 -28.8125 C 20.140625 -27.550781 21.457031 -26.175781 22.6875 -24.6875 C 23.925781 -23.207031 24.953125 -21.515625 25.765625 -19.609375 C 26.585938 -17.710938 27 -15.484375 27 -12.921875 C 27 -8.566406 25.9375 -5.222656 23.8125 -2.890625 C 21.6875 -0.554688 18.546875 0.609375 14.390625 0.609375 C 10.234375 0.609375 7.085938 -0.554688 4.953125 -2.890625 C 2.828125 -5.222656 1.765625 -8.566406 1.765625 -12.921875 L 1.765625 -16.625 L 9.765625 -16.625 L 9.765625 -12.390625 C 9.765625 -10.441406 10.160156 -9.082031 10.953125 -8.3125 C 11.753906 -7.539062 12.820312 -7.15625 14.15625 -7.15625 C 15.488281 -7.15625 16.550781 -7.539062 17.34375 -8.3125 C 18.144531 -9.082031 18.546875 -10.441406 18.546875 -12.390625 C 18.546875 -14.234375 18.132812 -15.859375 17.3125 -17.265625 C 16.488281 -18.679688 15.460938 -20.015625 14.234375 -21.265625 C 13.003906 -22.523438 11.679688 -23.78125 10.265625 -25.03125 C 8.859375 -26.289062 7.539062 -27.664062 6.3125 -29.15625 C 5.082031 -30.644531 4.054688 -32.335938 3.234375 -34.234375 C 2.410156 -36.128906 2 -38.363281 2 -40.9375 Z M 2 -40.9375 "/></g></g></g><g fill="#5271ff" fill-opacity="1"><g transform="translate(189.199427, 108.02478)"><g><path d="M 15.546875 -53.859375 C 19.796875 -53.859375 22.957031 -52.726562 25.03125 -50.46875 C 27.113281 -48.207031 28.15625 -44.898438 28.15625 -40.546875 L 28.15625 -33.546875 C 28.15625 -29.179688 27.113281 -25.867188 25.03125 -23.609375 C 22.957031 -21.359375 19.796875 -20.234375 15.546875 -20.234375 L 11.546875 -20.234375 L 11.546875 0 L 3.078125 0 L 3.078125 -53.859375 Z M 11.546875 -46.15625 L 11.546875 -27.921875 L 15.546875 -27.921875 C 16.878906 -27.921875 17.90625 -28.28125 18.625 -29 C 19.34375 -29.71875 19.703125 -31.050781 19.703125 -33 L 19.703125 -41.078125 C 19.703125 -43.035156 19.34375 -44.367188 18.625 -45.078125 C 17.90625 -45.796875 16.878906 -46.15625 15.546875 -46.15625 Z M 11.546875 -46.15625 "/></g></g></g><g fill="#5271ff" fill-opacity="1"><g transform="translate(218.89806, 108.02478)"><g><path d="M 30.46875 0 L 21.921875 0 L 20.46875 -9.765625 L 10.078125 -9.765625 L 8.609375 0 L 0.84375 0 L 9.46875 -53.859375 L 21.84375 -53.859375 Z M 11.15625 -17.078125 L 19.3125 -17.078125 L 15.234375 -44.3125 Z M 11.15625 -17.078125 "/></g></g></g><g fill="#5271ff" fill-opacity="1"><g transform="translate(250.904875, 108.02478)"><g><path d="M 2 -40.9375 C 2 -45.289062 3.035156 -48.632812 5.109375 -50.96875 C 7.191406 -53.300781 10.3125 -54.46875 14.46875 -54.46875 C 18.625 -54.46875 21.738281 -53.300781 23.8125 -50.96875 C 25.882812 -48.632812 26.921875 -45.289062 26.921875 -40.9375 L 26.921875 -38.859375 L 18.921875 -38.859375 L 18.921875 -41.46875 C 18.921875 -43.414062 18.550781 -44.785156 17.8125 -45.578125 C 17.070312 -46.378906 16.03125 -46.78125 14.6875 -46.78125 C 13.351562 -46.78125 12.316406 -46.378906 11.578125 -45.578125 C 10.835938 -44.785156 10.46875 -43.414062 10.46875 -41.46875 C 10.46875 -39.625 10.875 -37.992188 11.6875 -36.578125 C 12.507812 -35.171875 13.535156 -33.835938 14.765625 -32.578125 C 16.003906 -31.328125 17.328125 -30.070312 18.734375 -28.8125 C 20.140625 -27.550781 21.457031 -26.175781 22.6875 -24.6875 C 23.925781 -23.207031 24.953125 -21.515625 25.765625 -19.609375 C 26.585938 -17.710938 27 -15.484375 27 -12.921875 C 27 -8.566406 25.9375 -5.222656 23.8125 -2.890625 C 21.6875 -0.554688 18.546875 0.609375 14.390625 0.609375 C 10.234375 0.609375 7.085938 -0.554688 4.953125 -2.890625 C 2.828125 -5.222656 1.765625 -8.566406 1.765625 -12.921875 L 1.765625 -16.625 L 9.765625 -16.625 L 9.765625 -12.390625 C 9.765625 -10.441406 10.160156 -9.082031 10.953125 -8.3125 C 11.753906 -7.539062 12.820312 -7.15625 14.15625 -7.15625 C 15.488281 -7.15625 16.550781 -7.539062 17.34375 -8.3125 C 18.144531 -9.082031 18.546875 -10.441406 18.546875 -12.390625 C 18.546875 -14.234375 18.132812 -15.859375 17.3125 -17.265625 C 16.488281 -18.679688 15.460938 -20.015625 14.234375 -21.265625 C 13.003906 -22.523438 11.679688 -23.78125 10.265625 -25.03125 C 8.859375 -26.289062 7.539062 -27.664062 6.3125 -29.15625 C 5.082031 -30.644531 4.054688 -32.335938 3.234375 -34.234375 C 2.410156 -36.128906 2 -38.363281 2 -40.9375 Z M 2 -40.9375 "/></g></g></g><g fill="#5271ff" fill-opacity="1"><g transform="translate(280.372685, 108.02478)"><g><path d="M 2 -40.9375 C 2 -45.289062 3.035156 -48.632812 5.109375 -50.96875 C 7.191406 -53.300781 10.3125 -54.46875 14.46875 -54.46875 C 18.625 -54.46875 21.738281 -53.300781 23.8125 -50.96875 C 25.882812 -48.632812 26.921875 -45.289062 26.921875 -40.9375 L 26.921875 -38.859375 L 18.921875 -38.859375 L 18.921875 -41.46875 C 18.921875 -43.414062 18.550781 -44.785156 17.8125 -45.578125 C 17.070312 -46.378906 16.03125 -46.78125 14.6875 -46.78125 C 13.351562 -46.78125 12.316406 -46.378906 11.578125 -45.578125 C 10.835938 -44.785156 10.46875 -43.414062 10.46875 -41.46875 C 10.46875 -39.625 10.875 -37.992188 11.6875 -36.578125 C 12.507812 -35.171875 13.535156 -33.835938 14.765625 -32.578125 C 16.003906 -31.328125 17.328125 -30.070312 18.734375 -28.8125 C 20.140625 -27.550781 21.457031 -26.175781 22.6875 -24.6875 C 23.925781 -23.207031 24.953125 -21.515625 25.765625 -19.609375 C 26.585938 -17.710938 27 -15.484375 27 -12.921875 C 27 -8.566406 25.9375 -5.222656 23.8125 -2.890625 C 21.6875 -0.554688 18.546875 0.609375 14.390625 0.609375 C 10.234375 0.609375 7.085938 -0.554688 4.953125 -2.890625 C 2.828125 -5.222656 1.765625 -8.566406 1.765625 -12.921875 L 1.765625 -16.625 L 9.765625 -16.625 L 9.765625 -12.390625 C 9.765625 -10.441406 10.160156 -9.082031 10.953125 -8.3125 C 11.753906 -7.539062 12.820312 -7.15625 14.15625 -7.15625 C 15.488281 -7.15625 16.550781 -7.539062 17.34375 -8.3125 C 18.144531 -9.082031 18.546875 -10.441406 18.546875 -12.390625 C 18.546875 -14.234375 18.132812 -15.859375 17.3125 -17.265625 C 16.488281 -18.679688 15.460938 -20.015625 14.234375 -21.265625 C 13.003906 -22.523438 11.679688 -23.78125 10.265625 -25.03125 C 8.859375 -26.289062 7.539062 -27.664062 6.3125 -29.15625 C 5.082031 -30.644531 4.054688 -32.335938 3.234375 -34.234375 C 2.410156 -36.128906 2 -38.363281 2 -40.9375 Z M 2 -40.9375 "/></g></g></g><g fill="#5271ff" fill-opacity="1"><g transform="translate(309.840495, 108.02478)"><g><path d="M 11.15625 -53.859375 L 11.15625 -12.3125 C 11.15625 -10.363281 11.550781 -9.003906 12.34375 -8.234375 C 13.144531 -7.460938 14.210938 -7.078125 15.546875 -7.078125 C 16.878906 -7.078125 17.941406 -7.460938 18.734375 -8.234375 C 19.523438 -9.003906 19.921875 -10.363281 19.921875 -12.3125 L 19.921875 -53.859375 L 27.921875 -53.859375 L 27.921875 -12.84375 C 27.921875 -8.488281 26.859375 -5.144531 24.734375 -2.8125 C 22.609375 -0.476562 19.46875 0.6875 15.3125 0.6875 C 11.15625 0.6875 8.007812 -0.476562 5.875 -2.8125 C 3.75 -5.144531 2.6875 -8.488281 2.6875 -12.84375 L 2.6875 -53.859375 Z M 11.15625 -53.859375 "/></g></g></g><g fill="#5271ff" fill-opacity="1"><g transform="translate(187.63159, 137.390036)"><g><path d="M 1.109375 0 L 8.40625 0 L 8.40625 -2.515625 L 3.890625 -2.515625 L 3.890625 -12.59375 L 1.109375 -12.59375 Z M 1.109375 0 "/></g></g></g><g fill="#5271ff" fill-opacity="1"><g transform="translate(203.425337, 137.390036)"><g><path d="M 3.890625 0 L 3.890625 -12.59375 L 1.109375 -12.59375 L 1.109375 0 Z M 3.890625 0 "/></g></g></g><g fill="#5271ff" fill-opacity="1"><g transform="translate(215.165257, 137.390036)"><g><path d="M 12.671875 -12.59375 L 9.671875 -12.59375 L 7.046875 -5.515625 L 6.375 -3.53125 L 5.6875 -5.515625 L 3.09375 -12.59375 L 0.09375 -12.59375 L 5.1875 0 L 7.578125 0 Z M 12.671875 -12.59375 "/></g></g></g><g fill="#5271ff" fill-opacity="1"><g transform="translate(234.661139, 137.390036)"><g><path d="M 3.890625 -4.5 L 3.90625 -4.5 L 6.90625 0 L 10.421875 0 L 6.8125 -4.625 C 8.40625 -5.015625 9.6875 -6.421875 9.6875 -8.546875 C 9.6875 -10.9375 7.875 -12.59375 5.828125 -12.59375 L 1.109375 -12.59375 L 1.109375 0 L 3.890625 0 Z M 5.375 -10.40625 C 6.1875 -10.40625 7.03125 -9.703125 7.03125 -8.546875 C 7.03125 -7.34375 6.1875 -6.6875 5.375 -6.6875 L 3.890625 -6.6875 L 3.890625 -10.40625 Z M 5.375 -10.40625 "/></g></g></g><g fill="#5271ff" fill-opacity="1"><g transform="translate(251.602542, 137.390036)"><g><path d="M 7.96875 -4.8125 L 4.78125 -4.8125 L 6.375 -9.296875 Z M 12.671875 0 L 7.546875 -12.59375 L 5.203125 -12.59375 L 0.09375 0 L 3.078125 0 L 3.984375 -2.53125 L 8.78125 -2.53125 L 9.6875 0 Z M 12.671875 0 "/></g></g></g><g fill="#5271ff" fill-opacity="1"><g transform="translate(271.09842, 137.390036)"><g><path d="M 3.890625 -4.5 L 3.90625 -4.5 L 6.90625 0 L 10.421875 0 L 6.8125 -4.625 C 8.40625 -5.015625 9.6875 -6.421875 9.6875 -8.546875 C 9.6875 -10.9375 7.875 -12.59375 5.828125 -12.59375 L 1.109375 -12.59375 L 1.109375 0 L 3.890625 0 Z M 5.375 -10.40625 C 6.1875 -10.40625 7.03125 -9.703125 7.03125 -8.546875 C 7.03125 -7.34375 6.1875 -6.6875 5.375 -6.6875 L 3.890625 -6.6875 L 3.890625 -10.40625 Z M 5.375 -10.40625 "/></g></g></g><g fill="#5271ff" fill-opacity="1"><g transform="translate(288.039824, 137.390036)"><g><path d="M 3.890625 0 L 3.890625 -12.59375 L 1.109375 -12.59375 L 1.109375 0 Z M 3.890625 0 "/></g></g></g><g fill="#5271ff" fill-opacity="1"><g transform="translate(299.779743, 137.390036)"><g><path d="M 7.96875 -4.8125 L 4.78125 -4.8125 L 6.375 -9.296875 Z M 12.671875 0 L 7.546875 -12.59375 L 5.203125 -12.59375 L 0.09375 0 L 3.078125 0 L 3.984375 -2.53125 L 8.78125 -2.53125 L 9.6875 0 Z M 12.671875 0 "/></g></g></g></svg>